# xmcd CD database file
#
# Track frame offsets:
#	150
#	15212
#	30200
#	41562
#	53900
#	65205
#	86355
#	100240
#	114257
#	128912
#
# Disc length: 1883 seconds
#
# Revision: 0
# Processed by: cddbd v1.5.1PL0 Copyright (c) Steve Scherf et al.
# Submitted via: CDex 1.51
#
DISCID=7207590a
DTITLE=Various Artist - rockin'on CD vol.1
DYEAR=2005
DGENRE=Rock
TTITLE0=BLOC PARTY - Banquet
TTITLE1=BRIGHT EYES - Take It Easy（Love Nothing）
TTITLE2=THE FUTUREHEADS - Decent Days And Nights
TTITLE3=MAXIMO PARK - Apply Some Pressure
TTITLE4=GOLDIE LOOKIN CHAIN - Your Mother's Got A Penis
TTITLE5=THE DEPARTURE - Just Like TV
TTITLE6=ROOSTER - Come Get Some
TTITLE7=BRITISH SEA POWER - Please Stand Up
TTITLE8=SCISSOR SISTERS - Tits On The Radio
TTITLE9=NEON - Hit Me Again
EXTD=YEAR: 2005
EXTT0=
EXTT1=
EXTT2=
EXTT3=
EXTT4=
EXTT5=
EXTT6=
EXTT7=
EXTT8=
EXTT9=
PLAYORDER=
